<svg xmlns="http://www.w3.org/2000/svg" viewBox="0 0 1061 1061"><g id="f2598886-4858-4055-ba9c-ea7a6a08c7ee" data-name="bg"><circle cx="530.5" cy="530.5" r="530.5"/></g><g id="fb0fb135-5956-48e1-a445-d24dac577e09" data-name="Capa 9"><path d="M595,117.73c-10.5,3.5-20,14.1-22.2,24.8-4.3,20.6,16.3,41.2,36.9,36.9,15.5-3.2,27.5-19,26-33.9-1.1-10.5-9-21.3-19-26.2C610.56,116.43,601.16,115.73,595,117.73Z" transform="translate(-348 -26)" style="fill:#fcfafa"/><path d="M712,77.73c-10.5,3.5-20,14.1-22.2,24.8-4.3,20.6,16.3,41.2,36.9,36.9,15.5-3.2,27.5-19,26-33.9-1.1-10.5-9-21.3-19-26.2C727.56,76.43,718.16,75.73,712,77.73Z" transform="translate(-348 -26)" style="fill:#fcfafa"/><path d="M849,45.73c-10.5,3.5-20,14.1-22.2,24.8-4.3,20.6,16.3,41.2,36.9,36.9,15.5-3.2,27.5-19,26-33.9-1.1-10.5-9-21.3-19-26.2C864.56,44.43,855.16,43.73,849,45.73Z" transform="translate(-348 -26)" style="fill:#fcfafa"/><path d="M975,77.73c-10.5,3.5-20,14.1-22.2,24.8-4.3,20.6,16.3,41.2,36.9,36.9,15.5-3.2,27.5-19,26-33.9-1.1-10.5-9-21.3-19-26.2C990.56,76.43,981.16,75.73,975,77.73Z" transform="translate(-348 -26)" style="fill:#fcfafa"/><path d="M1096,94.73c-10.5,3.5-20,14.1-22.2,24.8-4.3,20.6,16.3,41.2,36.9,36.9,15.5-3.2,27.5-19,26-33.9-1.1-10.5-9-21.3-19-26.2C1111.56,93.43,1102.16,92.73,1096,94.73Z" transform="translate(-348 -26)" style="fill:#fcfafa"/><path d="M488,222.73c-10.5,3.5-20,14.1-22.2,24.8-4.3,20.6,16.3,41.2,36.9,36.9,15.5-3.2,27.5-19,26-33.9-1.1-10.5-9-21.3-19-26.2C503.56,221.43,494.16,220.73,488,222.73Z" transform="translate(-348 -26)" style="fill:#fcfafa"/><path d="M595,222.73c-10.5,3.5-20,14.1-22.2,24.8-4.3,20.6,16.3,41.2,36.9,36.9,15.5-3.2,27.5-19,26-33.9-1.1-10.5-9-21.3-19-26.2C610.56,221.43,601.16,220.73,595,222.73Z" transform="translate(-348 -26)" style="fill:#fcfafa"/><path d="M712,190.73c-10.5,3.5-20,14.1-22.2,24.8-4.3,20.6,16.3,41.2,36.9,36.9,15.5-3.2,27.5-19,26-33.9-1.1-10.5-9-21.3-19-26.2C727.56,189.43,718.16,188.73,712,190.73Z" transform="translate(-348 -26)" style="fill:#fcfafa"/><path d="M837,169.73c-10.5,3.5-20,14.1-22.2,24.8-4.3,20.6,16.3,41.2,36.9,36.9,15.5-3.2,27.5-19,26-33.9-1.1-10.5-9-21.3-19-26.2C852.56,168.43,843.16,167.73,837,169.73Z" transform="translate(-348 -26)" style="fill:#fcfafa"/><path d="M979,179.73c-10.5,3.5-20,14.1-22.2,24.8-4.3,20.6,16.3,41.2,36.9,36.9,15.5-3.2,27.5-19,26-33.9-1.1-10.5-9-21.3-19-26.2C994.56,178.43,985.16,177.73,979,179.73Z" transform="translate(-348 -26)" style="fill:#fcfafa"/><path d="M1096,222.73c-10.5,3.5-20,14.1-22.2,24.8-4.3,20.6,16.3,41.2,36.9,36.9,15.5-3.2,27.5-19,26-33.9-1.1-10.5-9-21.3-19-26.2C1111.56,221.43,1102.16,220.73,1096,222.73Z" transform="translate(-348 -26)" style="fill:#fcfafa"/><path d="M1224,222.73c-10.5,3.5-20,14.1-22.2,24.8-4.3,20.6,16.3,41.2,36.9,36.9,15.5-3.2,27.5-19,26-33.9-1.1-10.5-9-21.3-19-26.2C1239.56,221.43,1230.16,220.73,1224,222.73Z" transform="translate(-348 -26)" style="fill:#fcfafa"/><path d="M424,350.73c-10.5,3.5-20,14.1-22.2,24.8-4.3,20.6,16.3,41.2,36.9,36.9,15.5-3.2,27.5-19,26-33.9-1.1-10.5-9-21.3-19-26.2C439.56,349.43,430.16,348.73,424,350.73Z" transform="translate(-348 -26)" style="fill:#fcfafa"/><path d="M520,339.73c-10.5,3.5-20,14.1-22.2,24.8-4.3,20.6,16.3,41.2,36.9,36.9,15.5-3.2,27.5-19,26-33.9-1.1-10.5-9-21.3-19-26.2C535.56,338.43,526.16,337.73,520,339.73Z" transform="translate(-348 -26)" style="fill:#fcfafa"/><path d="M1224,350.73c-10.5,3.5-20,14.1-22.2,24.8-4.3,20.6,16.3,41.2,36.9,36.9,15.5-3.2,27.5-19,26-33.9-1.1-10.5-9-21.3-19-26.2C1239.56,349.43,1230.16,348.73,1224,350.73Z" transform="translate(-348 -26)" style="fill:#fcfafa"/><path d="M1331,350.73c-10.5,3.5-20,14.1-22.2,24.8-4.3,20.6,16.3,41.2,36.9,36.9,15.5-3.2,27.5-19,26-33.9-1.1-10.5-9-21.3-19-26.2C1346.56,349.43,1337.16,348.73,1331,350.73Z" transform="translate(-348 -26)" style="fill:#fcfafa"/><path d="M403,478.73c-10.5,3.5-20,14.1-22.2,24.8-4.3,20.6,16.3,41.2,36.9,36.9,15.5-3.2,27.5-19,26-33.9-1.1-10.5-9-21.3-19-26.2C418.56,477.43,409.16,476.73,403,478.73Z" transform="translate(-348 -26)" style="fill:#fcfafa"/><path d="M508,478.73c-10.5,3.5-20,14.1-22.2,24.8-4.3,20.6,16.3,41.2,36.9,36.9,15.5-3.2,27.5-19,26-33.9-1.1-10.5-9-21.3-19-26.2C523.56,477.43,514.16,476.73,508,478.73Z" transform="translate(-348 -26)" style="fill:#fcfafa"/><path d="M1224,478.73c-10.5,3.5-20,14.1-22.2,24.8-4.3,20.6,16.3,41.2,36.9,36.9,15.5-3.2,27.5-19,26-33.9-1.1-10.5-9-21.3-19-26.2C1239.56,477.43,1230.16,476.73,1224,478.73Z" transform="translate(-348 -26)" style="fill:#fcfafa"/><path d="M1352,478.73c-10.5,3.5-20,14.1-22.2,24.8-4.3,20.6,16.3,41.2,36.9,36.9,15.5-3.2,27.5-19,26-33.9-1.1-10.5-9-21.3-19-26.2C1367.56,477.43,1358.16,476.73,1352,478.73Z" transform="translate(-348 -26)" style="fill:#fcfafa"/><path d="M414,606.73c-10.5,3.5-20,14.1-22.2,24.8-4.3,20.6,16.3,41.2,36.9,36.9,15.5-3.2,27.5-19,26-33.9-1.1-10.5-9-21.3-19-26.2C429.56,605.43,420.16,604.73,414,606.73Z" transform="translate(-348 -26)" style="fill:#fcfafa"/><path d="M520,614.73c-10.5,3.5-20,14.1-22.2,24.8-4.3,20.6,16.3,41.2,36.9,36.9,15.5-3.2,27.5-19,26-33.9-1.1-10.5-9-21.3-19-26.2C535.56,613.43,526.16,612.73,520,614.73Z" transform="translate(-348 -26)" style="fill:#fcfafa"/><path d="M1224,606.73c-10.5,3.5-20,14.1-22.2,24.8-4.3,20.6,16.3,41.2,36.9,36.9,15.5-3.2,27.5-19,26-33.9-1.1-10.5-9-21.3-19-26.2C1239.56,605.43,1230.16,604.73,1224,606.73Z" transform="translate(-348 -26)" style="fill:#fcfafa"/><path d="M1352,606.73c-10.5,3.5-20,14.1-22.2,24.8-4.3,20.6,16.3,41.2,36.9,36.9,15.5-3.2,27.5-19,26-33.9-1.1-10.5-9-21.3-19-26.2C1367.56,605.43,1358.16,604.73,1352,606.73Z" transform="translate(-348 -26)" style="fill:#fcfafa"/><path d="M456,734.73c-10.5,3.5-20,14.1-22.2,24.8-4.3,20.6,16.3,41.2,36.9,36.9,15.5-3.2,27.5-19,26-33.9-1.1-10.5-9-21.3-19-26.2C471.56,733.43,462.16,732.73,456,734.73Z" transform="translate(-348 -26)" style="fill:#fcfafa"/><path d="M584,734.73c-10.5,3.5-20,14.1-22.2,24.8-2.5,11.7,3.2,24.4,14.2,31.9,10.7,7.4,22.9,7.5,33.7.3,17.7-11.8,20.1-33.8,5.3-48.5C606.46,734.63,594.26,731.33,584,734.73Z" transform="translate(-348 -26)" style="fill:#fcfafa"/><path d="M696,719.73c-10.5,3.5-20,14.1-22.2,24.8-2.5,11.7,3.2,24.4,14.2,31.9,10.7,7.4,22.9,7.5,33.7.3,17.7-11.8,20.1-33.8,5.3-48.5C718.46,719.63,706.26,716.33,696,719.73Z" transform="translate(-348 -26)" style="fill:#fcfafa"/><path d="M1312,714.73c-10.5,3.5-20,14.1-22.2,24.8-4.3,20.6,16.3,41.2,36.9,36.9,15.5-3.2,27.5-19,26-33.9-1.1-10.5-9-21.3-19-26.2C1327.56,713.43,1318.16,712.73,1312,714.73Z" transform="translate(-348 -26)" style="fill:#fcfafa"/><path d="M552,858.73c-10.5,3.5-20,14.1-22.2,24.8-2.5,11.7,3.2,24.4,14.2,31.9,10.7,7.4,22.9,7.5,33.7.3,17.7-11.8,20.1-33.8,5.3-48.5C574.46,858.63,562.26,855.33,552,858.73Z" transform="translate(-348 -26)" style="fill:#fcfafa"/><path d="M694,862.73c-10.5,3.5-20,14.1-22.2,24.8-2.5,11.7,3.2,24.4,14.2,31.9,10.7,7.4,22.9,7.5,33.7.3,17.7-11.8,20.1-33.8,5.3-48.5C716.46,862.63,704.26,859.33,694,862.73Z" transform="translate(-348 -26)" style="fill:#fcfafa"/><path d="M840,862.73c-15.1,5-25.3,21.6-22.2,36.2,2.5,11.9,13.6,23,25.5,25.5,19.3,4.1,39.4-14.2,37.4-33.9-1.1-10.5-9-21.3-19-26.2C855.56,861.43,846.16,860.73,840,862.73Z" transform="translate(-348 -26)" style="fill:#fcfafa"/><path d="M694,967.73c-10.5,3.5-20,14.1-22.2,24.8-2.5,11.7,3.2,24.4,14.2,31.9,10.7,7.4,22.9,7.5,33.7.3,17.7-11.8,20.1-33.8,5.3-48.5C716.46,967.63,704.26,964.33,694,967.73Z" transform="translate(-348 -26)" style="fill:#fcfafa"/><path d="M840,990.73c-10.5,3.5-20,14.1-22.2,24.8-4.3,20.6,16.3,41.2,36.9,36.9,15.5-3.2,27.5-19,26-33.9-1.1-10.5-9-21.3-19-26.2C855.56,989.43,846.16,988.73,840,990.73Z" transform="translate(-348 -26)" style="fill:#fcfafa"/></g><g id="b80d2e6c-a63f-44ee-87bc-f5e9fefabe00" data-name="cuerpo"><path d="M926.87,990.36s172.92-17.31,289-152.34,0-8.32,0-8.32-73.84-308-101.36-363.35S1035.18,286,814.09,293.51,570.84,495.7,570.84,495.7s-27.2,108.53,120.48,170.42c0,0,46.25,29.9,183.46,23.89l-4.73,12.35,23.47,88.08,19.76,110.78Z" transform="translate(-348 -26)" style="fill:#fff"/></g><g id="a452a79e-95a7-4f30-824b-87b0a0d89be4" data-name="corbatín"><path d="M1158.62,683.79c-2-13.56-6.66-26.25-13-38.35-1.3-2.49-1.75-6.26-6.22-5.31-.44.09-1.3-1.12-1.74-1.85a3.84,3.84,0,0,0-4.58-1.91c-9.39,1.93-18.84,3.47-28.16,5.68-22.84,5.4-40.84,18-54,37.42-1.74,2.56-3.46,3.62-6.55,3.55-8.87-.2-17.78-.47-26.62.06-5.52.33-8.76-1.48-11.92-6-12.79-18.23-30.37-29.77-51.95-35-9.48-2.29-19.14-3.83-28.7-5.76-1.79-.35-3.08-.07-4.15,1.62-.6,1-1.85,2.2-2.76,2.16-2.89-.12-3.69,1.87-4.69,3.78-5.29,10.13-9.78,20.6-12.13,31.83-1.55,7.43-3,15-2.21,22.58.65,6.09,1.71,12.16,2.87,18.18a217.82,217.82,0,0,0,11.23,37.92c.9,2.29,1.55,5,5,4.73a2.22,2.22,0,0,1,1.71,1.1c1.06,2.75,3.29,2.38,5.46,2.3,13.4-.43,26-4.07,38.26-9.25,16.54-7,30.93-17.28,43.76-29.74a8.07,8.07,0,0,1,6.22-2.53c10.33.09,20.66.14,31,0a8.52,8.52,0,0,1,6.62,2.87c3.23,3.17,6.61,6.18,10.09,9.07,19.11,15.83,40.84,25.92,65.5,29.23,4.09.55,9.09,2.56,12.15-2.75.18-.32,1-.4,1.52-.35,2.6.23,3.4-1.58,4-3.53,2.82-8.4,6-16.69,8.34-25.22,3.23-11.84,6.24-23.79,6.25-36.24C1159.11,690.64,1159.11,687.19,1158.62,683.79ZM1001,701.38l.13,0c.17,0,.14.23,0,.26-7.83,2-16.09-1.55-24-.76A.46.46,0,0,1,977,700c3.88-.46,7.81.22,11.67.5,4.09.31,8.2.53,12.29.89Zm-30.79-37.06c10.86,5.41,25.83,12.42,30.42,24.65,0,.11-.14.18-.17.06-1.62-5.73-7-9.43-11.57-12.85-6-4.47-12.46-7.5-19.21-10.58C968.89,665.23,969.43,663.92,970.23,664.32ZM1001.51,711c-5.3,4.84-11,10.44-17.46,13.73-6.86,3.5-14.3,5.54-21.7,7.47a1.27,1.27,0,0,1-.94-2.35c5.36-2.51,11.85-3.12,17.57-4.84,8.33-2.5,15.71-8.81,22.39-14.18A.11.11,0,1,1,1001.51,711Zm42.13-2.49c0,.69-1,.63-1.14,0a15.09,15.09,0,0,0-7.74-10.58c-2.7-1.53-11.7-3-6.44-8.06,2.92-2.79,10.8.18,12.77,3.22C1044,697.55,1043.76,703.31,1043.64,708.46Zm46.12-44.14c.79-.4,1.34.91.52,1.28-6.75,3.08-13.23,6.11-19.21,10.58-4.55,3.42-10,7.12-11.57,12.85,0,.12-.2.05-.17-.06C1063.93,676.74,1078.9,669.73,1089.76,664.32Zm-31,37c2.92-1.89,6.1-1.79,9.46-1.94,4.57-.2,9.16-.22,13.73-.33a1.15,1.15,0,1,1,0,2.29c-4.07-.1-8.15-.3-12.22-.32-.88,0-1.77,0-2.68-.08-1.85.1-3.69.16-5.53.26l-1.45.18c-.37.1-.74.2-1.1.33S1058.57,701.49,1058.8,701.35Zm38.84,30.8c-7.41-1.93-14.85-4-21.7-7.47-6.45-3.29-12.17-8.89-17.47-13.73a.11.11,0,1,1,.14-.17c6.68,5.37,14.06,11.68,22.39,14.18,5.72,1.72,12.21,2.33,17.58,4.84A1.27,1.27,0,0,1,1097.64,732.15Zm44.47-48.33v.3a129.09,129.09,0,0,1-2.8,20.83c0,.24-.45.28-.46,0-.25-10.21-.59-22.46-7.51-30.67-3.44-4.1-9.3-6.93-10.44-12.61-.45-2.27.81-8.8,4.07-8.19C1139.38,656.23,1142.55,670,1142.11,683.82Z" transform="translate(-348 -26)" style="fill-rule:evenodd"/></g><g id="e1bdd311-4f6c-442c-a049-f4022a60ac2d" data-name="ojo"><circle cx="528.5" cy="385.5" r="33.5"/></g></svg>